<?xml version="1.0" standalone="no"?>
<!DOCTYPE svg PUBLIC "-//W3C//DTD SVG 20010904//EN"
 "http://www.w3.org/TR/2001/REC-SVG-20010904/DTD/svg10.dtd">
<svg version="1.0" xmlns="http://www.w3.org/2000/svg"
 width="1024.000000pt" height="1024.000000pt" viewBox="0 0 1024.000000 1024.000000"
 preserveAspectRatio="xMidYMid meet">
<metadata>
Created for Safari pinned tab
</metadata>
<g transform="translate(0.000000,1024.000000) scale(0.100000,-0.100000)"
fill="#000000" stroke="none">
<path d="M4800 9240 c-1105 -80 -2093 -641 -2740 -1555 -356 -504 -581 -1084
-665 -1715 -24 -183 -24 -657 0 -840 84 -631 309 -1211 665 -1715 647 -914
1635 -1475 2740 -1555 183 -13 657 -13 840 0 1105 80 2093 641 2740 1555 356
504 581 1084 665 1715 24 183 24 657 0 840 -84 631 -309 1211 -665 1715 -647
914 -1635 1475 -2740 1555 -157 11 -683 11 -840 0z m800 -1600 c580 -60 1080
-340 1435 -805 180 -235 295 -495 355 -800 25 -125 25 -375 0 -500 -60 -305
-175 -565 -355 -800 -355 -465 -855 -745 -1435 -805 -125 -13 -375 -13 -500
0 -580 60 -1080 340 -1435 805 -180 235 -295 495 -355 800 -25 125 -25 375 0
500 60 305 175 565 355 800 355 465 855 745 1435 805 125 13 375 13 500 0z"/>
<path d="M4720 6560 l0 -880 -880 0 -880 0 0 -320 0 -320 880 0 880 0 0 -880
0 -880 320 0 320 0 0 880 0 880 880 0 880 0 0 320 0 320 -880 0 -880 0 0 880
0 880 -320 0 -320 0 0 -880z"/>
</g>
</svg>